<?xml version="1.0" standalone="no"?>
<!DOCTYPE svg PUBLIC "-//W3C//DTD SVG 20010904//EN"
 "http://www.w3.org/TR/2001/REC-SVG-20010904/DTD/svg10.dtd">
<svg version="1.0" xmlns="http://www.w3.org/2000/svg"
 width="277.000000pt" height="277.000000pt" viewBox="0 0 277.000000 277.000000"
 preserveAspectRatio="xMidYMid meet">
<metadata>
Created by potrace 1.11, written by Peter Selinger 2001-2013
</metadata>
<g transform="translate(0.000000,277.000000) scale(0.100000,-0.100000)"
fill="#000000" stroke="none">
<path d="M866 2414 c-43 -8 -124 -26 -180 -41 -96 -25 -114 -27 -376 -29 -151
-1 -278 -3 -282 -3 -4 -1 -8 -265 -8 -588 -1 -324 -2 -747 -3 -941 -1 -195 1
-356 5 -358 4 -3 263 -7 575 -10 526 -5 569 -7 588 -23 11 -10 47 -31 80 -47
49 -24 73 -29 130 -28 60 0 79 5 130 33 33 18 63 38 67 45 5 8 166 12 585 16
l577 5 1 948 c0 835 -2 947 -15 948 -8 0 -139 2 -290 3 -271 3 -277 3 -400 34
-172 43 -173 43 -285 48 -117 4 -198 -12 -283 -56 -73 -38 -130 -36 -222 8
-111 54 -234 65 -394 36z"/>
</g>
</svg>
